Patient4_TMGait_0pt2_01_right_05_EMG.mot
version=1
nRows=40
nColumns=33
inDegrees=no
endheader
time	1LAddLong	2LGlutMax	3LGlutMed	4LIliopsoas	5LSemiMemb	6LBicFemLong	7LRecFem	8LVastMed	9LVastLat	10LGasMed	11LTibAnt	12lTibPost	13LPeroneusLong	14LSol	15LExtDigLong	16LFlexDigLong	17RAddLong	18RGlutMax	19RGlutMed	20RIliopsoas	21RSemiMemb	22RBicFemLong	23RRecFem	24RVastMed	25RVastLat	26RGasMed	27RTibAnt	28RTibPost	29RPeroneusLong	30RSol	31RExtDigLong	32RFlexDigLong
11.618	0.02594	0.059967	0.041199	-0.00885	0.018616	-0.004883	-0.10025	-0.033112	0.2919	-0.035858	0.14175	0.016174	0.17395	0.1384	-0.7666	0.004272	-0.028687	0.013428	-0.18372	0.02121	0.000916	-0.034637	0.1442	-0.000763	0.015564	0.001526	0.067902	0.000305	-0.031281	-0.17212	-0.002747	-0.002289
11.619	0.014496	0.044861	0.030975	0.023041	0.015564	-0.075226	-0.038757	-0.05127	0.18036	-0.022278	-0.21698	0.018921	-0.41046	0.037689	-0.42786	0.013428	-0.025635	-0.036011	0.053711	-0.1709	0.011749	-0.013123	0.14435	0.016632	0.016785	0.001831	-0.036926	-0.001831	-0.056458	-0.14755	0.000916	-0.003204
11.62	0.019836	0.01297	-0.14893	0.017395	0.021515	-0.036316	0.032349	-0.028992	-0.037842	0.036621	-0.1059	0.019073	-0.14969	-0.19913	-0.4248	0.002747	-0.027771	-0.03067	0.24338	-0.15656	0.023041	0.005341	0.031281	0.024872	0.023193	-0.003967	-0.056	-0.001373	-0.044861	-0.084381	-0.001068	-0.000153
11.621	0.008698	-0.039825	-0.11169	0.00473	0.013428	0.022125	0.11871	0.00946	-0.18494	0.035553	-0.097656	0.017548	0.39352	-0.13321	-0.008392	0.03006	-0.021515	-0.071411	0.062256	-0.02655	0.036163	0.03891	-0.030518	0.095215	0.031281	0	0.10254	-0.006409	-0.072632	-0.034027	-0.002747	-0.005951
11.622	0.013885	-0.00885	0.074615	-0.011597	-0.001068	0.032349	0.071259	0.024872	-0.32532	0.072174	-0.099792	0.016937	-0.31906	-0.25116	-0.1178	0.02243	-0.007324	-0.050354	-0.25879	-0.036926	0.046692	0.011444	-0.007477	0.044708	0.017853	0.001678	0.25757	-0.001526	-0.066986	-0.032959	-0.002747	-0.010681
11.623	0.021362	-0.020599	-0.017548	0.001526	0.050354	0.018616	0.011292	0.014648	-0.25207	0.068359	-0.097809	0.015717	0.24384	-0.33386	-0.040283	0.018768	0	-0.062408	-0.2742	-0.048828	0.049133	0.022278	-0.011902	0.047913	0.032349	-0.005951	0.22873	-0.007629	-0.11017	0.081635	-0.007019	-0.009613
11.624	0.014191	-0.051422	-0.043182	0.009766	0.070343	-0.055084	-0.054474	0.011902	-0.058441	0.026398	0.031128	0.007172	-0.087128	-0.15686	0.32928	0.024414	0.019531	-0.002441	-0.40558	-0.005341	0.032043	0.039978	-0.003357	0.022736	0.02594	0.003662	0.19684	-0.006561	-0.029602	0.037537	-0.001526	-0.011597
11.625	0.00824	-0.022125	-0.016327	-0.015717	0.043793	-0.14786	0.014648	0.000458	0.035248	0.008087	0.078278	0.014343	-0.22079	-0.012207	0.31036	0.021362	0.03952	-0.014648	-0.1831	-0.098724	0.032349	0.008087	-0.041504	-0.00824	0.001221	0.002747	0.23651	-0.00351	0.012512	0.007019	-0.002441	-0.001678
11.626	0.008698	-0.005341	-0.037689	-0.006714	-0.009766	-0.13748	0.097504	-0.020447	-0.063629	-0.007629	0.025635	0.017395	0.041199	-0.057068	0.12283	0.034637	0.030212	-0.015717	-0.12375	-0.11902	0.026398	0.008392	-0.04303	-0.048218	-0.009766	-0.000458	-0.020142	-0.00351	-0.028839	0.074005	0.002136	-0.018768
11.627	0.01236	-0.001068	-0.020294	-0.018158	-0.035553	-0.11688	0.070648	-0.006561	-0.2066	-0.014954	-0.085144	0.014801	0.059662	-0.030823	0.39002	0.031128	0.026703	-0.013275	0.54214	-0.074768	0.03006	0.02121	-0.081024	-0.06546	-0.002441	-0.001984	-0.090637	-0.00473	-0.043793	-0.000305	-0.000305	-0.008545
11.628	0.010834	0.00473	-0.008087	0.01709	-0.052643	-0.083008	0.005798	0.024261	-0.078125	-0.031738	-0.082397	0.011292	0.052795	-0.088196	-0.2684	0.011749	0.02533	-0.03952	0.25757	0.090027	0.03418	0.028839	-0.070953	-0.017395	-0.001068	-0.00412	-0.36926	-0.005493	-0.048218	0.001831	-0.00061	-0.01709
11.629	0.001221	0.007629	0.022888	0.030518	0.071869	-0.061188	0.017853	0.04715	0.13336	0.011749	-0.086975	0.019684	-0.21469	-0.24475	-0.020447	-0.017853	0.021362	-0.051727	0.19684	0.091553	0.042419	0.015564	-0.043488	-0.023041	0.001678	-0.006409	-0.35019	-0.001984	-0.053253	-0.012817	-0.001068	-0.014343
11.63	0.006714	0.003204	0.047302	0.005798	0.039673	-0.011139	-0.001373	0.027161	0.12314	0.028992	-0.053253	0.019379	-0.22217	-0.18539	0.067749	0.018463	0.016479	-0.039215	0.4335	0.095215	0.039368	0.019379	-0.043488	-0.019684	0.011444	-0.005341	-0.27237	-0.002747	-0.024109	-0.036163	-0.00061	-0.014343
11.631	0.01358	0.013123	0.079956	0.017548	0.045013	-0.015869	0.012512	-0.021973	0.14984	0.036774	0.059052	0.019073	-0.10544	-0.19653	0.0914	0.019073	0.012665	-0.036469	-0.35797	0.12009	0.023956	0.005798	-0.065613	-0.019836	0.020142	0.003052	-0.22919	0.000763	0.050659	-0.12619	-0.00351	-0.014038
11.632	0.012512	0.023041	-0.02243	0.008087	0.027771	-0.025787	0.056	-0.02121	0.15656	0.026245	-0.035858	0.018463	0.29526	-0.12573	0.038452	0.023956	0.012207	-0.02533	-0.38071	0.06012	0.018768	0.029144	-0.024109	-0.023651	0.018616	0.009613	-0.11475	-0.000305	0.066528	-0.22186	-0.001984	-0.012817
11.633	0.003357	0.028534	-0.11856	0.006561	0.042267	0.001221	0.091248	-0.013885	0.1355	0.017853	-0.051727	0.013275	0.038605	-0.1033	0.025177	0.029297	0.006409	-0.006104	-0.578	0.019836	0.025177	0.036163	-0.039368	0.02655	0.029449	0.003357	-0.10117	-0.001984	0.037994	-0.23071	-0.005646	-0.008545
11.634	0.007172	0.037689	-0.13382	0.023956	0.010376	0.029449	0.066071	-0.014648	0.085144	0.014496	0.04364	0.011902	-0.15015	-0.071716	0.09491	0.027618	-0.005646	-0.015869	-0.42053	0.038452	0.024872	0.03418	-0.043488	0.007172	0.033569	0.000458	-0.13306	-0.003357	-0.030212	-0.16373	-0.003052	-0.014954
11.635	0.008545	0.064545	-0.050507	0.009155	-0.000458	0.013428	0.021515	-0.010223	0.06424	0.000305	0.14252	0.012665	-0.05127	0.009308	0.21423	0.023651	0.005188	0.007629	-0.23453	0.084991	0.022125	0.033112	-0.084229	-0.037537	0.001526	-0.006714	0.42587	-0.008087	-0.05661	-0.11749	-0.005493	-0.009155
11.636	0.010529	0.082092	-0.088043	0.008698	0.016022	0.006104	0.000305	-0.002899	0.065613	0.00946	0.24017	0.013275	0.33936	0.031281	1.0024	0.029755	0.038452	-0.007324	-0.16922	0.098419	0.03006	0.02594	-0.0914	-0.05661	-0.001984	-0.004425	0.61951	-0.00473	-0.082245	-0.011444	-0.006409	-0.00885
11.637	0.015259	0.085907	-0.077667	0.016632	0.019073	0.000153	0.002289	-0.00473	0.088196	0.03006	0.27374	0.01358	0.55298	0.024872	0.096893	0.018311	0.019226	-0.020905	-0.18097	0.091858	0.027008	0.032196	-0.031281	-0.076904	-0.00351	-0.013885	0.9198	-0.008698	-0.067902	0.021057	-0.005035	-0.009918
11.638	0.014191	0.031281	-0.1265	0.000305	0.021515	-0.028534	-0.030975	0.005341	0.07019	0.012207	0.063019	0.015259	0.11261	0.18631	-0.19196	0.026398	0.030365	-0.056	-0.46402	0.055847	0.023193	0.018616	0.022888	-0.11765	-0.000153	-0.007477	1.2053	-0.006866	-0.28168	-0.019226	-0.002899	-0.015869
11.639	0.007935	0.032959	0.10162	-0.013885	-0.011139	-0.052795	-0.001221	0.035248	0.062408	-0.083313	-0.18814	0.015564	-0.23254	0.30777	-0.46463	-0.001526	0.025024	-0.046997	-0.3804	0.05722	0.007477	0.005188	0.12665	-0.11154	-0.021515	-0.004883	1.1172	-0.01297	-0.44495	-0.093231	-0.004883	-0.011444
11.64	0.009613	0.040588	-0.13199	0.006866	0.015717	0.086212	0.029602	0.037842	0.044403	-0.031281	-0.12619	0.01358	0.21698	0.28381	-0.11719	-0.004883	-0.000916	-0.03067	-0.48279	0.03006	0.004883	0.002441	0.14481	-0.10864	-0.032654	0	0.14175	-0.008545	-0.1915	-0.092621	-0.007324	-0.007629
11.641	0.010071	0.001678	-0.31036	0.007629	0.04303	0.27664	0.045471	0.020905	0.055695	-0.003662	-0.059052	0.014343	-0.71014	0.28473	-0.40115	0.003967	-0.017853	-0.030365	-0.40115	-0.081329	0.004425	0.015259	0.11032	-0.082703	-0.027161	-0.003815	-0.28091	-0.002594	0.022736	-0.063629	-0.003967	-0.020905
11.642	0.004272	0.018768	-0.177	-0.001221	0.045013	0.31357	0.049744	0.019073	0.1059	-0.000305	0.021667	0.010376	0.68542	0.15778	-0.36972	0.002136	-0.01709	-0.048981	-0.46234	-0.16708	0.011749	0.033417	0.035706	-0.057983	-0.020294	-0.004272	-0.35324	-0.002441	-0.032501	-0.19913	-0.000916	-0.010834
11.643	-0.007477	0.054169	0.16068	0.010071	0.027771	0.32471	0.031281	0.004272	0.16281	-0.003662	0.060883	0.010071	0.34485	0.097351	0.080872	-0.00061	0.033569	-0.034485	-0.48584	-0.18662	0.019379	0.01297	0.058899	-0.010986	-0.010834	-0.002136	-0.57663	-0.001984	-0.082703	-0.23789	-0.000916	-0.015106
11.644	0.001068	0.031433	0.15335	0.01358	0.0177	0.36026	0.011292	0.007477	0.20905	-0.018616	-0.067902	0.012207	0.34042	0.011444	0.27359	-0.007019	0.030823	-0.012665	-0.14526	-0.2179	0.02655	0.00946	-0.02533	0.000305	-0.018158	0.000916	-0.20203	0.00061	0.22812	-0.23422	0.002594	-0.018005
11.645	-0.018616	0.067902	0.1973	-0.004578	-0.000916	0.19012	0.002441	0.023956	0.17487	-0.018005	-0.058594	0.009308	-0.27603	0.039978	0.08606	0.005951	0.02533	-0.009766	0.14465	-0.24735	0.04364	-0.010529	-0.060272	-0.004578	-0.026093	0.001526	0.35004	-0.000763	0.34637	-0.24612	-0.000305	-0.027008
11.646	-0.0177	0.037994	0.15778	-0.018463	-0.02655	-0.33432	-0.058746	0.020447	0.090332	-0.020752	-0.11566	0.012054	-0.29404	0.049744	-0.2095	0.003052	0.013733	-0.001526	-0.12192	-0.2063	0.016632	-0.006104	-0.074615	-0.084686	-0.005951	0.004578	0.62653	0.00351	-0.55878	-0.19394	-0.006256	-0.019073
11.647	-0.007935	0.043793	0.10742	-0.014343	-0.068359	-0.46097	-0.069122	-0.007477	-0.059967	-0.052185	-0.091858	0.007935	-0.072479	-0.053558	-0.34073	-0.006409	0.033417	-0.006256	-0.086212	-0.045319	0.021667	-0.013733	-0.050507	-0.061188	-0.002441	0.00061	0.072937	-0.001373	-0.23819	-0.18692	-0.000305	-0.021057
11.648	-0.000763	0.045166	0.048523	-0.015259	-0.030212	-0.34088	0.019226	-0.019836	-0.18204	-0.043793	0.033875	0.003204	0.23254	-0.098724	-0.054779	0.002441	0.017853	-0.029297	-0.56656	0.15259	0.019073	-0.007935	-0.029755	-0.094604	-0.00824	-0.001221	-0.80124	0.002289	0.13123	-0.15549	-0.001526	-0.0177
11.649	0.017853	0.057678	0.023956	0.009766	0.039673	-0.25146	0.079956	-0.021362	-0.10208	-0.014801	0.080414	0.010529	0.24155	-0.072479	-0.15976	-0.009308	0.008392	-0.038452	-0.80185	0.14832	0.019073	-0.021515	0.06134	-0.10696	-0.010834	-0.007019	-0.27191	-0.000916	-0.015106	-0.028076	-0.003967	-0.022583
11.65	0.028992	0.061188	0.072937	0.016022	0.11185	-0.21927	0.080414	-0.007019	-0.072174	-0.007172	-0.041199	0.015869	0	0.028687	-0.11643	0.011139	0.00061	0.032501	-0.42038	0.13229	0.025177	-0.010376	0.098267	-0.11566	-0.009155	-0.004883	0.13138	0.000153	-0.089417	0.059509	-0.002136	-0.023346
11.651	0.011597	0.041504	0.091553	0.010376	0.099182	-0.054626	0.057068	0.006409	-0.081482	0.003357	0	0.003967	-0.29953	-0.007172	0.10681	-0.019073	0.002441	0.019379	-0.16617	0.21057	0.026398	0.002441	0.085754	-0.10986	0.003967	-0.000458	0.009918	-0.001831	-0.054626	0.10635	-0.003052	-0.014954
11.652	0.008087	0.052643	0.019379	-0.013275	0.097504	0.067749	0.079346	0.007324	-0.072021	0.00412	0.028687	0.008087	0.33539	0.016632	-0.021057	-0.024567	0.020905	-0.001984	-0.32532	0.2002	0.044403	0.002899	0.08728	-0.072174	0.016022	0.003967	-0.067139	-0.010834	-0.042114	0.032959	-0.003357	-0.015259
11.653	-0.001678	0.072784	-0.014954	-0.004425	0.056915	0.066376	0.02243	-0.007019	-0.079651	0.007324	0.01236	0.013733	0.10361	0.056458	0.017548	-0.014343	0.007477	-0.036316	-0.28153	0.10925	0.041046	0.006714	0.066986	-0.059204	0.037537	0.002441	-0.03067	-0.002136	-0.010071	-0.047302	-0.000458	-0.016327
11.654	-0.000153	0.058746	-0.097351	0.014496	0.024414	0.008698	-0.085754	0.00061	-0.053711	0.039368	0.041809	0.002289	0.52872	-0.14221	0.021362	-0.014954	-0.00946	-0.046539	0.17914	0.018005	0.037537	0.00473	0.041809	-0.056	0.002594	-0.00061	-0.032349	-0.002289	-0.12009	0.053864	-0.001678	-0.016479
11.655	-0.002441	0.031738	-0.047302	0.018463	-0.044861	0.011292	-0.17487	0.009003	0.03952	0.03418	0.065918	0.01709	0.072479	-0.20981	0.11444	-0.006866	-0.023346	-0.028076	-0.10742	-0.019226	0.047455	0.018921	0.043488	-0.048981	0.006104	-0.007324	0.19043	-0.000458	-0.19226	0.024872	-0.003357	-0.016632
11.656	0.010223	0.047913	0.055695	0.001373	-0.11124	-0.065002	-0.18494	0.007782	0.12909	-0.006256	0.22095	0.005188	-1.0051	-0.11429	0.076294	0.00061	-0.026855	0.040588	-0.11505	0.03067	0.049438	0.035553	0.035248	-0.065918	-0.010223	0.001831	-0.065002	-0.00824	-0.013428	-0.062866	-0.004272	-0.013428
11.657	0.025635	0.024719	-0.045319	-0.005493	-0.028992	-0.12421	-0.15106	0.014954	0.15884	-0.036926	0.2034	0.006104	-0.92606	-0.019836	0.027618	-0.003204	-0.035858	0.053864	-0.14114	-0.002747	0.048676	0.026093	0.049896	-0.042572	-0.008087	0.000763	0.098114	-0.007019	0.11047	-0.12421	0	-0.022583
